<svg width="50" height="50" viewBox="0 0 50 50" fill="none" xmlns="http://www.w3.org/2000/svg">
<g clip-path="url(#clip0_2_423)">
<path d="M21.07 19.77L29.94 24.4L21.07 29V19.77ZM49.34 24.67C49.34 29.5493 47.8931 34.319 45.1824 38.3759C42.4716 42.4329 38.6187 45.5949 34.1108 47.4621C29.603 49.3293 24.6426 49.8179 19.8571 48.866C15.0716 47.9141 10.6758 45.5645 7.22568 42.1143C3.77552 38.6642 1.42593 34.2684 0.474031 29.4829C-0.477867 24.6974 0.0106814 19.7371 1.8779 15.2292C3.74511 10.7213 6.90713 6.86842 10.9641 4.15765C15.021 1.44687 19.7907 2.02858e-06 24.67 2.02858e-06C27.9101 -0.00131214 31.1187 0.635899 34.1124 1.87522C37.1061 3.11454 39.8262 4.93166 42.1173 7.22275C44.4083 9.51383 46.2255 12.234 47.4648 15.2276C48.7041 18.2213 49.3413 21.4299 49.34 24.67ZM38.67 23C38.67 22.31 38.67 21.62 38.61 20.93C38.55 20.24 38.4 19.28 38.28 18.45C38.2084 17.8241 37.9816 17.2259 37.62 16.71C37.3483 16.3169 36.9969 15.9855 36.5885 15.7374C36.1801 15.4893 35.7241 15.33 35.25 15.27C34.46 15.17 33.67 15.12 32.88 15.07C31.8 15 30.72 14.94 29.64 14.9C29.05 14.9 28.46 14.9 27.87 14.9H25.66H23.79C23.16 14.9 22.52 14.9 21.89 14.9L18.74 15L16.6 15.1C15.88 15.15 15.16 15.21 14.45 15.28C13.8685 15.3155 13.3034 15.4868 12.8 15.78C12.382 16.0322 12.02 16.3672 11.7363 16.7645C11.4525 17.1617 11.253 17.6128 11.15 18.09C10.9359 18.9854 10.812 19.8999 10.78 20.82C10.78 21.51 10.68 22.2 10.67 22.88C10.67 24.23 10.67 25.58 10.67 26.88C10.6816 27.9913 10.7685 29.1005 10.93 30.2C10.9926 31.235 11.3971 32.2198 12.08 33C12.5558 33.5144 13.1825 33.8645 13.87 34C14.27 34.07 14.68 34.11 15.09 34.14L17.48 34.35L21.17 34.42H21.44H24.52H26.46H28.31L31.1 34.34C31.53 34.34 31.96 34.34 32.38 34.29L34.32 34.13C34.8666 34.115 35.4084 34.0242 35.93 33.86C36.7289 33.5599 37.3952 32.9858 37.81 32.24C38.1262 31.6153 38.3229 30.937 38.39 30.24C38.5752 29.0692 38.6655 27.8853 38.66 26.7C38.68 25.49 38.68 24.26 38.67 23Z" fill="url(#paint0_linear_2_423)"/>
</g>
<defs>
<linearGradient id="paint0_linear_2_423" x1="24.67" y1="-23.15" x2="24.67" y2="48.02" gradientUnits="userSpaceOnUse">
<stop stop-color="#919EA8"/>
<stop offset="1" stop-color="#824F8E"/>
</linearGradient>
<clipPath id="clip0_2_423">
<rect width="49.34" height="49.34" fill="white"/>
</clipPath>
</defs>
</svg>
