<svg width="50" height="50" viewBox="0 0 50 50" fill="none" xmlns="http://www.w3.org/2000/svg">
<g clip-path="url(#clip0_2_427)">
<path d="M32.81 16.56V18.56C32.81 18.644 32.7934 18.7273 32.7613 18.8049C32.7291 18.8826 32.682 18.9531 32.6226 19.0126C32.5631 19.072 32.4926 19.1191 32.4149 19.1513C32.3373 19.1834 32.254 19.2 32.17 19.2H30.17C30.086 19.2 30.0027 19.1834 29.9251 19.1513C29.8474 19.1191 29.7769 19.072 29.7175 19.0126C29.658 18.9531 29.6109 18.8826 29.5787 18.8049C29.5466 18.7273 29.53 18.644 29.53 18.56V16.56C29.5287 16.4756 29.5443 16.3918 29.576 16.3135C29.6077 16.2352 29.6547 16.1641 29.7144 16.1044C29.7741 16.0447 29.8452 15.9977 29.9235 15.966C30.0018 15.9343 30.0856 15.9187 30.17 15.92H32.17C32.3397 15.92 32.5025 15.9874 32.6226 16.1075C32.7426 16.2275 32.81 16.3903 32.81 16.56ZM49.34 24.67C49.34 29.5493 47.8931 34.319 45.1824 38.3759C42.4716 42.4329 38.6187 45.5949 34.1108 47.4621C29.603 49.3293 24.6426 49.8179 19.8571 48.866C15.0716 47.9141 10.6758 45.5645 7.22568 42.1143C3.77552 38.6642 1.42593 34.2684 0.474031 29.4829C-0.477867 24.6974 0.0106814 19.7371 1.8779 15.2292C3.74511 10.7213 6.90713 6.86842 10.9641 4.15765C15.021 1.44687 19.7907 2.02858e-06 24.67 2.02858e-06C27.9101 -0.00131214 31.1187 0.635899 34.1124 1.87522C37.1061 3.11454 39.8262 4.93166 42.1173 7.22275C44.4083 9.51383 46.2255 12.234 47.4648 15.2276C48.7041 18.2213 49.3413 21.4299 49.34 24.67ZM36.25 22.59H29.77C30.154 23.4279 30.3212 24.3489 30.2564 25.2683C30.1915 26.1877 29.8966 27.0761 29.3988 27.8518C28.901 28.6275 28.2163 29.2657 27.4074 29.7077C26.5986 30.1497 25.6917 30.3813 24.77 30.3813C23.8483 30.3813 22.9414 30.1497 22.1326 29.7077C21.3237 29.2657 20.639 28.6275 20.1412 27.8518C19.6434 27.0761 19.3485 26.1877 19.2836 25.2683C19.2188 24.3489 19.386 23.4279 19.77 22.59H13.09V30.51C13.09 32.0456 13.7 33.5183 14.7859 34.6042C15.8717 35.69 17.3444 36.3 18.88 36.3H30.46C31.9956 36.3 33.4683 35.69 34.5542 34.6042C35.64 33.5183 36.25 32.0456 36.25 30.51V22.59ZM36.25 18.83C36.2553 18.0663 36.1094 17.3091 35.8208 16.602C35.5322 15.8949 35.1065 15.2519 34.5684 14.71C34.0302 14.1681 33.3901 13.738 32.685 13.4445C31.9799 13.1511 31.2237 13 30.46 13H18.88C17.3444 13 15.8717 13.61 14.7859 14.6959C13.7 15.7817 13.09 17.2544 13.09 18.79V20.4H21.61C22.5401 19.7427 23.6511 19.3897 24.79 19.3897C25.9289 19.3897 27.0399 19.7427 27.97 20.4H36.25V18.83Z" fill="url(#paint0_linear_2_427)"/>
</g>
<defs>
<linearGradient id="paint0_linear_2_427" x1="24.67" y1="-23.15" x2="24.67" y2="48.02" gradientUnits="userSpaceOnUse">
<stop stop-color="#919EA8"/>
<stop offset="1" stop-color="#824F8E"/>
</linearGradient>
<clipPath id="clip0_2_427">
<rect width="49.34" height="49.34" fill="white"/>
</clipPath>
</defs>
</svg>
