<svg width="50" height="50" viewBox="0 0 50 50" fill="none" xmlns="http://www.w3.org/2000/svg">
<g clip-path="url(#clip0_2_431)">
<path d="M24.74 0C19.8646 0.00200189 15.0991 1.44856 11.0452 4.15701C6.99127 6.86547 3.83079 10.7144 1.96278 15.2177C0.0947669 19.7211 -0.397005 24.677 0.549556 29.4597C1.49612 34.2423 3.83856 38.6373 7.28112 42.0896C10.7237 45.5419 15.112 47.8968 19.892 48.8569C24.6719 49.817 29.6292 49.3393 34.1378 47.484C38.6465 45.6288 42.5043 42.4792 45.2242 38.433C47.9441 34.3868 49.4042 29.6254 49.42 24.75C49.4253 21.5042 48.791 18.2892 47.5534 15.2885C46.3159 12.2879 44.4993 9.56052 42.2074 7.26213C39.9155 4.96375 37.1932 3.13943 34.1961 1.89337C31.199 0.64731 27.9858 0.00393643 24.74 0V0ZM32.21 14.12C32.21 14.18 32.21 14.2 32.13 14.2H29.46C29.18 14.2 28.89 14.2 28.61 14.2C28.3536 14.2231 28.1014 14.2803 27.86 14.37C27.5797 14.4605 27.3257 14.618 27.1201 14.8288C26.9145 15.0397 26.7634 15.2975 26.68 15.58C26.5722 15.9572 26.5184 16.3477 26.52 16.74V20.26C26.52 20.41 26.52 20.41 26.67 20.41H32C32 20.51 32 20.61 32 20.71L31.91 21.44L31.82 22.16C31.82 22.4 31.75 22.64 31.72 22.88L31.63 23.6C31.63 23.85 31.57 24.09 31.53 24.33L31.44 25.05L31.35 25.79C31.35 25.88 31.35 25.88 31.25 25.88H26.64C26.51 25.88 26.52 25.88 26.52 26V40C26.52 40.1 26.52 40.1 26.43 40.1H20.92C20.82 40.1 20.82 40.1 20.82 40V26C20.82 25.9 20.82 25.9 20.73 25.9H16V20.44H20.72C20.78 20.44 20.79 20.44 20.79 20.35V16.15C20.79 15.92 20.79 15.7 20.79 15.48C20.79 15.11 20.88 14.73 20.95 14.36C21.1492 13.5146 21.5054 12.714 22 12C22.6125 10.9942 23.5107 10.1935 24.58 9.7C25.4996 9.29965 26.4874 9.07901 27.49 9.05C27.98 9.05 28.49 9.05 28.97 9.05C29.45 9.05 29.78 9.05 30.18 9.05H30.65L31.45 9.11L32.13 9.18C32.19 9.18 32.21 9.18 32.21 9.26C32.2 10.93 32.2 12.52 32.21 14.12Z" fill="url(#paint0_linear_2_431)"/>
</g>
<defs>
<linearGradient id="paint0_linear_2_431" x1="24.71" y1="-23.15" x2="24.71" y2="48.02" gradientUnits="userSpaceOnUse">
<stop stop-color="#919EA8"/>
<stop offset="1" stop-color="#824F8E"/>
</linearGradient>
<clipPath id="clip0_2_431">
<rect width="49.42" height="49.34" fill="white"/>
</clipPath>
</defs>
</svg>
