<svg width="87" height="120" viewBox="0 0 87 120" fill="none" xmlns="http://www.w3.org/2000/svg">
<g clip-path="url(#clip0_2_323)">
<path d="M0.980518 92.6488C0.695945 92.7454 0.448772 92.9287 0.273715 93.173C0.0986629 93.4173 0.00452375 93.7103 0.00452375 94.0109C0.00452375 94.3115 0.0986629 94.6045 0.273715 94.8488C0.448772 95.0931 0.695945 95.2764 0.980518 95.373C6.5965 97.0144 11.7077 100.047 15.8408 104.189C19.9924 108.302 23.026 113.406 24.6545 119.019C24.7785 119.381 25.0405 119.679 25.3834 119.849C25.7262 120.018 26.1221 120.045 26.4848 119.924C26.6951 119.853 26.8861 119.734 27.043 119.578C27.1999 119.421 27.3183 119.23 27.3891 119.019C29.0447 113.421 32.074 108.326 36.2012 104.198C40.3284 100.07 45.4224 97.0398 51.0195 95.3839C51.3028 95.2845 51.5482 95.0995 51.7219 94.8545C51.8955 94.6095 51.9888 94.3166 51.9888 94.0163C51.9888 93.716 51.8955 93.4232 51.7219 93.1782C51.5482 92.9332 51.3028 92.7482 51.0195 92.6488C45.4167 90.9914 40.3179 87.9572 36.1884 83.823C32.0589 79.6888 29.0301 74.5862 27.3782 68.9807C27.2565 68.6197 26.9966 68.3217 26.6555 68.1521C26.3144 67.9826 25.92 67.9553 25.5588 68.0763C25.3477 68.1455 25.1559 68.2635 24.9988 68.4206C24.8417 68.5777 24.7238 68.7696 24.6545 68.9807C23.0104 74.5955 19.9803 79.7063 15.8432 83.8424C11.706 87.9785 6.59491 91.0069 0.980518 92.6488Z" fill="#E0A82E"/>
</g>
<path d="M17.3394 8.53225C17.2409 8.56568 17.1553 8.62914 17.0947 8.71371C17.0342 8.79827 17.0016 8.8997 17.0016 9.00375C17.0016 9.10779 17.0342 9.20922 17.0947 9.29379C17.1553 9.37836 17.2409 9.44182 17.3394 9.47525C19.2834 10.0434 21.0527 11.093 22.4833 12.5268C23.9204 13.9505 24.9705 15.7175 25.5343 17.6605C25.5772 17.7857 25.6679 17.8889 25.7866 17.9476C25.9052 18.0062 26.0423 18.0156 26.1678 17.9736C26.2406 17.9491 26.3067 17.9081 26.361 17.8537C26.4153 17.7994 26.4563 17.7333 26.4808 17.6605C27.0539 15.7227 28.1025 13.959 29.5312 12.53C30.9598 11.1011 32.7232 10.0522 34.6606 9.47902C34.7587 9.44461 34.8436 9.38057 34.9037 9.29577C34.9638 9.21097 34.9961 9.10959 34.9961 9.00564C34.9961 8.90168 34.9638 8.8003 34.9037 8.7155C34.8436 8.6307 34.7587 8.56666 34.6606 8.53225C32.7212 7.95854 30.9562 6.90824 29.5268 5.47717C28.0973 4.04611 27.0489 2.27983 26.4771 0.339458C26.4349 0.214489 26.345 0.111338 26.2269 0.0526432C26.1088 -0.00605189 25.9723 -0.0154967 25.8473 0.0263815C25.7742 0.0503566 25.7078 0.0911867 25.6534 0.145573C25.599 0.199959 25.5582 0.266376 25.5343 0.339458C24.9651 2.28305 23.9163 4.05217 22.4842 5.48389C21.0521 6.91562 19.2829 7.96392 17.3394 8.53225Z" fill="#E0A82E"/>
<g clip-path="url(#clip1_2_323)">
<path d="M55.6034 45.1685C55.4283 45.2279 55.2762 45.3407 55.1684 45.491C55.0607 45.6414 55.0028 45.8217 55.0028 46.0067C55.0028 46.1916 55.0607 46.372 55.1684 46.5223C55.2762 46.6727 55.4283 46.7855 55.6034 46.8449C59.0594 47.855 62.2047 49.7209 64.7482 52.2699C67.303 54.801 69.1699 57.9422 70.172 61.3965C70.2483 61.6191 70.4096 61.8026 70.6205 61.9068C70.8315 62.0111 71.0752 62.0277 71.2983 61.953C71.4277 61.9095 71.5453 61.8366 71.6418 61.74C71.7384 61.6435 71.8113 61.5259 71.8548 61.3965C72.8736 57.9514 74.7378 54.8159 77.2777 52.2756C79.8175 49.7352 82.9523 47.8706 86.3966 46.8516C86.571 46.7904 86.722 46.6766 86.8288 46.5258C86.9357 46.3751 86.9931 46.1948 86.9931 46.01C86.9931 45.8252 86.9357 45.645 86.8288 45.4942C86.722 45.3435 86.571 45.2296 86.3966 45.1685C82.9487 44.1485 79.811 42.2813 77.2698 39.7372C74.7286 37.1931 72.8647 34.053 71.8481 30.6035C71.7732 30.3813 71.6133 30.1979 71.4034 30.0936C71.1935 29.9893 70.9507 29.9725 70.7285 30.0469C70.5986 30.0895 70.4805 30.1621 70.3839 30.2588C70.2872 30.3555 70.2146 30.4736 70.172 30.6035C69.1603 34.0588 67.2956 37.2039 64.7496 39.7492C62.2037 42.2944 59.0584 44.1581 55.6034 45.1685Z" fill="#E0A82E"/>
</g>
<defs>
<clipPath id="clip0_2_323">
<rect width="52" height="52" fill="white" transform="matrix(-1 0 0 1 52 68)"/>
</clipPath>
<clipPath id="clip1_2_323">
<rect width="32" height="32" fill="white" transform="matrix(-1 0 0 1 87 30)"/>
</clipPath>
</defs>
</svg>
