<svg width="222" height="50" viewBox="0 0 222 50" fill="none" xmlns="http://www.w3.org/2000/svg">
<g clip-path="url(#clip0_1_17)">
<path d="M21.9618 32.142C22.0397 32.1674 22.1044 32.2222 22.142 32.2947C22.1795 32.3672 22.1867 32.4515 22.1621 32.5293C22.1462 32.5754 22.1198 32.6173 22.0851 32.6519C22.0504 32.6864 22.0082 32.7126 21.9618 32.7284C20.7374 33.0857 19.6233 33.744 18.7226 34.6426C17.8164 35.5318 17.1536 36.6362 16.7969 37.8512C16.7714 37.9287 16.7162 37.993 16.6433 38.0303C16.5703 38.0676 16.4856 38.0748 16.4073 38.0504C16.3609 38.0345 16.3187 38.0083 16.284 37.9738C16.2493 37.9393 16.2229 37.8974 16.207 37.8512C15.8465 36.6376 15.186 35.5329 14.2858 34.6381C13.3855 33.7433 12.2742 33.0867 11.0532 32.7284C11.0134 32.7159 10.9764 32.6956 10.9446 32.6686C10.9128 32.6417 10.8868 32.6086 10.8681 32.5715C10.8494 32.5343 10.8384 32.4938 10.8358 32.4523C10.8332 32.4109 10.839 32.3693 10.8529 32.3301C10.8709 32.2864 10.8981 32.247 10.9326 32.2145C10.9672 32.1821 11.0083 32.1574 11.0532 32.142C12.2746 31.7808 13.3858 31.122 14.2858 30.2254C15.1859 29.3288 15.8463 28.2229 16.207 27.0081C16.237 26.9319 16.2952 26.8699 16.3697 26.8349C16.4442 26.8 16.5294 26.7946 16.6077 26.82C16.6534 26.834 16.6952 26.8582 16.7299 26.8909C16.7647 26.9235 16.7914 26.9636 16.808 27.0081C17.1614 28.2267 17.8192 29.3365 18.7204 30.2342C19.6215 31.1319 20.7366 31.7882 21.9618 32.142Z" fill="#E0A82E"/>
<path d="M45.0589 20.4248C46.2368 18.6571 47.8589 17.2259 49.7645 16.2731C51.67 15.3202 53.7929 14.8787 55.923 14.9922C64.2268 14.9922 68.6348 20.4248 68.6348 27.8159V48.4178C68.6319 48.5959 68.5594 48.7659 68.4327 48.8918C68.306 49.0178 68.1349 49.0898 67.9558 49.0927H64.6164C64.4334 49.0927 64.2578 49.0204 64.1284 48.8918C63.999 48.7631 63.9263 48.5886 63.9263 48.4067V28.7674C63.9263 22.7484 61.099 19.075 55.0993 19.075C49.4446 19.075 45.0256 22.6156 45.0256 29.4202V48.4509C45.0256 48.6299 44.954 48.8016 44.8267 48.9282C44.6993 49.0548 44.5266 49.1259 44.3466 49.1259H41.0072C40.8242 49.1259 40.6486 49.0536 40.5192 48.925C40.3898 48.7963 40.3171 48.6218 40.3171 48.4399V0.685955C40.3148 0.589487 40.3334 0.493663 40.3716 0.404947C40.4098 0.31623 40.4667 0.236683 40.5384 0.171669C40.6102 0.106656 40.6951 0.0576884 40.7875 0.0280682C40.8799 -0.00155199 40.9776 -0.0111359 41.074 -3.72096e-05H42.7214C43.3414 -3.72096e-05 43.9359 0.244762 44.3743 0.680507C44.8127 1.11625 45.0589 1.70725 45.0589 2.32349V20.4248Z" fill="#1B293F"/>
<path d="M74.8571 32.4629C74.8571 23.3015 81.38 14.9922 91.9101 14.9922C102.44 14.9922 109.085 23.3015 109.085 32.4629C109.085 41.6242 102.507 49.8782 91.9101 49.8782C81.3132 49.8782 74.8571 41.6242 74.8571 32.4629ZM91.9101 45.7401C99.4125 45.7401 104.288 39.9866 104.288 32.5182C104.288 25.0497 99.4125 19.2409 91.9101 19.2409C84.4077 19.2409 79.599 24.9944 79.599 32.5182C79.599 40.042 84.4744 45.7955 91.9101 45.7955" fill="#1B293F"/>
<path d="M115.519 48.4178V0.685976C115.519 0.504039 115.592 0.329554 115.721 0.200906C115.851 0.0722573 116.026 -1.66841e-05 116.209 -1.66841e-05H117.857C118.166 -0.0029405 118.472 0.0550008 118.758 0.170459C119.044 0.285917 119.305 0.456603 119.524 0.672654C119.744 0.888705 119.918 1.14584 120.037 1.42919C120.155 1.71255 120.217 2.01651 120.217 2.32351V48.4178C120.217 48.5968 120.145 48.7685 120.018 48.895C119.89 49.0216 119.718 49.0927 119.538 49.0927H116.198C116.018 49.0927 115.845 49.0216 115.718 48.895C115.591 48.7685 115.519 48.5968 115.519 48.4178Z" fill="#1B293F"/>
<path d="M155.836 0H157.484C158.104 0 158.698 0.244799 159.137 0.680544C159.575 1.11629 159.821 1.70729 159.821 2.32352V48.4178C159.821 48.5064 159.804 48.5942 159.77 48.6761C159.735 48.758 159.685 48.8324 159.622 48.895C159.559 48.9577 159.485 49.0074 159.402 49.0413C159.32 49.0753 159.231 49.0927 159.142 49.0927H156.026C155.936 49.0927 155.848 49.0753 155.766 49.0413C155.683 49.0074 155.608 48.9577 155.545 48.895C155.482 48.8324 155.432 48.758 155.398 48.6761C155.364 48.5942 155.347 48.5064 155.347 48.4178V42.9409C153.042 47.2007 148.757 49.8783 142.635 49.8783C132.361 49.8783 126.84 41.6353 126.84 32.474C126.84 23.3127 132.405 14.9923 142.635 14.9923C145.152 14.8576 147.657 15.4243 149.867 16.6285C152.078 17.8327 153.906 19.6265 155.146 21.8079V0.685992C155.146 0.504056 155.219 0.329571 155.348 0.200923C155.478 0.072274 155.653 0 155.836 0V0ZM143.592 19.1746C136.09 19.1746 131.615 25.0719 131.615 32.4519C131.615 39.8318 136.067 45.7291 143.592 45.7291C151.117 45.7291 155.38 39.7654 155.38 32.5072C155.38 25.2489 151.106 19.2299 143.592 19.2299" fill="#1B293F"/>
<path d="M171.142 33.7685C171.598 40.5177 176.017 45.6848 183.063 45.6848C185.109 45.7501 187.133 45.2434 188.904 44.2225C190.675 43.2015 192.122 41.7071 193.081 39.9092C193.267 39.5426 193.552 39.2346 193.904 39.0197C194.256 38.8047 194.661 38.6913 195.074 38.6921H197.511C197.602 38.6907 197.692 38.707 197.776 38.7401C197.861 38.7732 197.938 38.8225 198.003 38.8852C198.068 38.9479 198.12 39.0227 198.156 39.1054C198.192 39.188 198.211 39.277 198.213 39.3671C198.223 39.4441 198.223 39.5223 198.213 39.5994C197.105 42.6868 195.04 45.3453 192.316 47.1923C189.592 49.0394 186.348 49.9798 183.052 49.8782C172.444 49.8782 166.522 41.768 166.522 32.4075C166.522 23.0471 172.912 14.9922 182.985 14.9922C193.059 14.9922 199.114 22.5934 199.114 32.0092C199.114 32.7284 199.048 33.7795 199.048 33.7795L171.142 33.7685ZM171.275 29.9734H194.384C193.794 23.5671 189.508 19.1745 182.93 19.1745C176.351 19.1745 172.054 23.8216 171.275 29.9734Z" fill="#1B293F"/>
<path d="M222 19.9159C222 19.9159 221.21 19.8495 220.353 19.8495C214.62 19.8495 210.335 23.2573 210.335 30.1947V48.4067C210.335 48.5886 210.262 48.7631 210.132 48.8918C210.003 49.0204 209.827 49.0927 209.644 49.0927H206.305C206.122 49.0927 205.946 49.0204 205.817 48.8918C205.688 48.7631 205.615 48.5886 205.615 48.4067V16.4527C205.615 16.3632 205.633 16.2745 205.668 16.1919C205.702 16.1092 205.753 16.0343 205.818 15.9715C205.882 15.9087 205.958 15.8592 206.042 15.826C206.125 15.7927 206.215 15.7763 206.305 15.7778H207.852C208.443 15.7778 209.009 16.0109 209.426 16.4259C209.844 16.8409 210.079 17.4038 210.079 17.9907V20.9338C211.336 18.6435 214.62 15.4016 220.809 15.4016C221.143 15.4016 221.922 15.468 221.922 15.468L222 19.9159Z" fill="#1B293F"/>
<path d="M30.1877 19.9159L28.7741 21.3321C28.3839 21.7155 27.8715 21.9517 27.325 22.0001C26.7785 22.0486 26.2321 21.9063 25.7798 21.5977C23.2868 20.0023 20.3609 19.2067 17.398 19.3184C11.5876 19.3184 7.30206 20.3363 5.68804 23.379C5.10981 24.335 4.83083 25.4404 4.8866 26.5545C4.85386 27.3448 5.05596 28.1272 5.4677 28.8041C5.87945 29.481 6.48259 30.0223 7.20188 30.3607C7.41006 30.4499 7.63231 30.5023 7.85862 30.5156C8.27047 30.5156 8.42631 30.7922 8.42631 31.3897V34.1668C8.42642 34.3244 8.36498 34.476 8.25494 34.5895C8.1449 34.703 7.99484 34.7696 7.83636 34.7754H7.79183C6.42433 34.8021 5.07382 34.4706 3.87607 33.8142C2.67831 33.1577 1.67549 32.1994 0.968427 31.0356C0.421341 30.0078 0.0989155 28.8766 0.0222778 27.7163C0.0222778 27.5392 0.0222778 27.3511 0.0222778 27.1409C0.0222778 19.0971 7.06831 14.9701 17.5316 14.9701C23.2308 14.9701 27.3827 16.5302 30.1877 19.0307C30.3006 19.1463 30.3638 19.3011 30.3638 19.4622C30.3638 19.6234 30.3006 19.7781 30.1877 19.8937" fill="#1B293F"/>
<path d="M2.83849 45.0763L4.25215 43.6711C4.63919 43.2869 5.14899 43.0491 5.69359 42.9986C6.2382 42.9481 6.78346 43.0881 7.2353 43.3945C9.71761 44.9872 12.6309 45.7864 15.5837 45.6848C21.3941 45.6848 25.6796 44.6558 27.2825 41.6131C27.8589 40.6763 28.1418 39.5901 28.0951 38.493C28.1284 37.7012 27.9252 36.9173 27.5112 36.24C27.0973 35.5627 26.491 35.0223 25.7687 34.6868C25.5605 34.5976 25.3383 34.5452 25.112 34.5319C24.7001 34.4766 24.5443 34.2553 24.5443 33.6578V30.8807C24.5428 30.8022 24.5569 30.7242 24.5857 30.6512C24.6146 30.5781 24.6576 30.5114 24.7124 30.4549C24.7672 30.3984 24.8327 30.3532 24.905 30.3218C24.9774 30.2904 25.0553 30.2736 25.1342 30.2721C26.502 30.2338 27.8558 30.5541 29.0594 31.2009C30.2631 31.8476 31.2742 32.7981 31.991 33.9566C32.5369 34.9849 32.8592 36.1158 32.9372 37.2759C32.9372 37.464 32.9372 37.6521 32.9372 37.8512C32.9372 45.8951 25.8911 50.0221 15.4278 50.0221C9.72868 50.0221 5.57676 48.462 2.7717 45.9614C2.71483 45.9058 2.66965 45.8395 2.63882 45.7664C2.60798 45.6933 2.5921 45.6148 2.5921 45.5355C2.5921 45.4562 2.60798 45.3777 2.63882 45.3045C2.66965 45.2314 2.71483 45.1651 2.7717 45.1095" fill="#1B293F"/>
</g>
<defs>
<clipPath id="clip0_1_17">
<rect width="222" height="50" fill="white"/>
</clipPath>
</defs>
</svg>
