<svg width="264" height="60" viewBox="0 0 264 60" fill="none" xmlns="http://www.w3.org/2000/svg">
<g clip-path="url(#clip0_2_449)">
<path d="M26 38.3199C26.0928 38.3518 26.1692 38.4192 26.2123 38.5073C26.2555 38.5954 26.2618 38.6971 26.23 38.7899C26.2119 38.8412 26.1815 38.8871 26.1413 38.9238C26.1012 38.9604 26.0527 38.9866 26 38.9999C24.55 39.428 23.23 40.2118 22.16 41.2799C21.0867 42.342 20.302 43.6602 19.88 45.1099C19.8654 45.1567 19.8415 45.2 19.8096 45.2372C19.7777 45.2744 19.7385 45.3046 19.6945 45.3262C19.6505 45.3477 19.6026 45.36 19.5537 45.3624C19.5048 45.3648 19.4559 45.3571 19.41 45.3399C19.3551 45.3247 19.305 45.2955 19.2647 45.2552C19.2244 45.2149 19.1952 45.1649 19.18 45.1099C18.7587 43.6641 17.9813 42.3472 16.919 41.2797C15.8568 40.2122 14.5437 39.4284 13.1 38.9999C13.0064 38.966 12.9299 38.8967 12.8869 38.8069C12.8439 38.7172 12.8378 38.6141 12.87 38.5199C12.8883 38.4666 12.9185 38.4182 12.9584 38.3783C12.9982 38.3384 13.0467 38.3082 13.1 38.2899C14.5471 37.8617 15.8642 37.0784 16.9313 36.0112C17.9984 34.9441 18.7818 33.6271 19.21 32.1799C19.235 32.107 19.2822 32.0437 19.3449 31.9988C19.4077 31.954 19.4829 31.9299 19.56 31.9299C19.6371 31.9299 19.7123 31.954 19.7751 31.9988C19.8378 32.0437 19.885 32.107 19.91 32.1799C20.3279 33.6324 21.1049 34.9563 22.1692 36.0293C23.2335 37.1024 24.551 37.8902 26 38.3199Z" fill="#E0A82E"/>
<path d="M53.4 24.35C54.7996 22.2446 56.7232 20.54 58.9816 19.4038C61.24 18.2676 63.7553 17.739 66.28 17.87C76.11 17.87 81.34 24.35 81.34 33.17V57.73C81.34 57.8359 81.319 57.9408 81.2782 58.0385C81.2373 58.1362 81.1775 58.2248 81.1022 58.2993C81.0268 58.3737 80.9374 58.4324 80.8392 58.472C80.741 58.5116 80.6359 58.5313 80.53 58.53H76.62C76.4025 58.53 76.1939 58.4436 76.0402 58.2898C75.8864 58.1361 75.8 57.9275 75.8 57.71V34.26C75.8 27.08 72.45 22.71 65.35 22.71C58.64 22.71 53.41 26.92 53.41 35.04V57.72C53.41 57.9348 53.3247 58.1409 53.1728 58.2928C53.0208 58.4447 52.8148 58.53 52.6 58.53H48.69C48.4725 58.53 48.2639 58.4436 48.1102 58.2898C47.9564 58.1361 47.87 57.9275 47.87 57.71V0.81C47.87 0.595175 47.9553 0.389148 48.1072 0.237244C48.2591 0.085339 48.4652 0 48.68 0L50.68 0C51.4059 0.0131059 52.0977 0.31072 52.6064 0.828782C53.1151 1.34684 53.4001 2.04393 53.4 2.77V24.35Z" fill="white"/>
<path d="M88.72 38.7101C88.72 27.7801 96.44 17.8701 108.93 17.8701C121.42 17.8701 129.22 27.7801 129.22 38.7101C129.22 49.6401 121.49 59.4701 108.93 59.4701C96.37 59.4701 88.72 49.6301 88.72 38.7101ZM108.93 54.4701C117.82 54.4701 123.6 47.6001 123.6 38.7101C123.6 29.8201 117.82 22.8701 108.93 22.8701C100.04 22.8701 94.34 29.7401 94.34 38.7101C94.34 47.6801 100.11 54.4701 108.93 54.4701Z" fill="white"/>
<path d="M136.91 57.73V0.81C136.91 0.595175 136.995 0.389148 137.147 0.237244C137.299 0.085339 137.505 0 137.72 0L139.72 0C140.455 0 141.159 0.291838 141.679 0.811314C142.198 1.33079 142.49 2.03535 142.49 2.77V57.77C142.49 57.8759 142.469 57.9808 142.428 58.0785C142.387 58.1762 142.328 58.2648 142.252 58.3392C142.177 58.4137 142.087 58.4724 141.989 58.512C141.891 58.5516 141.786 58.5713 141.68 58.57H137.76C137.654 58.5713 137.549 58.5516 137.451 58.512C137.353 58.4724 137.263 58.4137 137.188 58.3392C137.112 58.2648 137.053 58.1762 137.012 58.0785C136.971 57.9808 136.95 57.8759 136.95 57.77" fill="white"/>
<path d="M184.7 0H186.7C187.435 0 188.139 0.291838 188.659 0.811314C189.178 1.33079 189.47 2.03535 189.47 2.77V57.77C189.47 57.9848 189.385 58.1909 189.233 58.3428C189.081 58.4947 188.875 58.58 188.66 58.58H184.97C184.755 58.58 184.549 58.4947 184.397 58.3428C184.245 58.1909 184.16 57.9848 184.16 57.77V51.2C181.43 56.28 176.36 59.48 169.1 59.48C156.93 59.48 150.37 49.64 150.37 38.72C150.37 27.8 156.93 17.88 169.1 17.88C172.075 17.7231 175.035 18.4001 177.647 19.8347C180.258 21.2694 182.417 23.4046 183.88 26V0.82C183.88 0.602522 183.966 0.393952 184.12 0.240172C184.274 0.0863926 184.483 0 184.7 0V0ZM170.14 22.87C161.25 22.87 155.94 29.87 155.94 38.7C155.94 47.53 161.25 54.47 170.14 54.47C179.03 54.47 184.14 47.37 184.14 38.7C184.14 30.03 179.06 22.87 170.14 22.87Z" fill="white"/>
<path d="M202.83 40.2699C203.38 48.2699 208.61 54.4699 216.96 54.4699C219.383 54.5412 221.777 53.9338 223.873 52.7163C225.968 51.4988 227.682 49.7197 228.82 47.5799C229.04 47.1433 229.378 46.7766 229.795 46.5205C230.211 46.2645 230.691 46.1293 231.18 46.1299H234.08C234.296 46.1299 234.503 46.2149 234.656 46.3665C234.81 46.5181 234.897 46.7241 234.9 46.9399C234.898 47.032 234.881 47.1231 234.85 47.2099C233.532 50.8945 231.08 54.0663 227.845 56.2692C224.611 58.4722 220.761 59.5928 216.85 59.4699C204.28 59.4699 197.26 49.7999 197.26 38.6399C197.26 27.4799 204.83 17.8799 216.77 17.8799C228.71 17.8799 235.89 26.9299 235.89 38.1699C235.89 39.0299 235.81 40.2799 235.81 40.2799L202.83 40.2699ZM202.99 35.7399H230.38C229.67 28.0999 224.6 22.8699 216.8 22.8699C209 22.8699 203.92 28.4099 203 35.7399" fill="white"/>
<path d="M263.11 23.7199C263.11 23.7199 262.17 23.6399 261.11 23.6399C254.32 23.6399 249.25 27.7 249.25 35.9799V57.7099C249.25 57.9274 249.164 58.136 249.01 58.2898C248.856 58.4436 248.647 58.5299 248.43 58.5299H244.53C244.313 58.5299 244.104 58.4436 243.95 58.2898C243.796 58.136 243.71 57.9274 243.71 57.7099V19.62C243.713 19.4042 243.8 19.1982 243.954 19.0466C244.107 18.895 244.314 18.8099 244.53 18.8099H246.37C247.073 18.8099 247.747 19.0891 248.244 19.5861C248.741 20.0831 249.02 20.7571 249.02 21.4599V25C250.51 22.27 254.4 18.45 261.74 18.45C262.13 18.45 263.07 18.53 263.07 18.53L263.11 23.7199Z" fill="white"/>
<path d="M35.77 23.7499L34.1 25.4299C33.6422 25.8917 33.036 26.177 32.3884 26.2356C31.7407 26.2941 31.0932 26.1221 30.56 25.7499C27.6057 23.8386 24.1366 22.8789 20.62 22.9999C13.73 22.9999 8.62 24.2199 6.75 27.8499C6.04255 28.9578 5.6934 30.2566 5.75 31.5699C5.70758 32.5126 5.94513 33.4468 6.43273 34.2547C6.92033 35.0626 7.63615 35.7081 8.49 36.1099C8.7392 36.2096 9.00229 36.2703 9.27 36.2899C9.75 36.3499 9.93 36.6199 9.93 37.2899V40.5899C9.93266 40.6826 9.91685 40.775 9.88349 40.8616C9.85013 40.9482 9.79989 41.0273 9.73568 41.0943C9.67147 41.1613 9.59459 41.2148 9.50949 41.2519C9.42439 41.2889 9.33279 41.3086 9.24 41.3099C7.63245 41.3613 6.03949 40.9904 4.62 40.2342C3.2005 39.4779 2.00406 38.3628 1.15 36.9999C0.490303 35.7835 0.0982115 34.4402 0 33.0599C0 32.8499 0 32.6199 0 32.3799C0 22.7899 8.36 17.8799 20.76 17.8799C27.51 17.8799 32.42 19.7399 35.76 22.7199C35.8895 22.8541 35.9619 23.0334 35.9619 23.2199C35.9619 23.4064 35.8895 23.5857 35.76 23.7199" fill="white"/>
<path d="M3.36 53.75L5 52.07C5.45984 51.6117 6.06558 51.3287 6.71217 51.2703C7.35877 51.2118 8.00542 51.3815 8.54 51.75C11.4972 53.6518 14.9665 54.6012 18.48 54.47C25.37 54.47 30.48 53.25 32.35 49.62C33.0562 48.5115 33.4053 47.2131 33.35 45.9C33.3942 44.9557 33.1563 44.0196 32.6666 43.2111C32.1768 42.4025 31.4574 41.7581 30.6 41.36C30.3528 41.2524 30.089 41.1881 29.82 41.17C29.33 41.11 29.15 40.84 29.15 40.17V36.82C29.1499 36.6324 29.223 36.4522 29.3538 36.3178C29.4845 36.1833 29.6625 36.1052 29.85 36.1C31.4747 36.0492 33.084 36.4285 34.5151 37.1994C35.9463 37.9702 37.1484 39.1054 38 40.49C38.6492 41.7123 39.031 43.0588 39.12 44.44C39.12 44.65 39.12 44.88 39.12 45.12C39.12 54.71 30.76 59.62 18.36 59.62C11.61 59.62 6.7 57.76 3.36 54.78C3.23273 54.6446 3.16188 54.4658 3.16188 54.28C3.16188 54.0941 3.23273 53.9153 3.36 53.78" fill="white"/>
</g>
<defs>
<clipPath id="clip0_2_449">
<rect width="263.11" height="59.62" fill="white"/>
</clipPath>
</defs>
</svg>
